<svg xmlns="http://www.w3.org/2000/svg" width="24" height="24"><defs><clipPath id="a"><path fill="#fff" d="M0 0h20.409v20.409H0z"/></clipPath></defs><g clip-path="url(#a)" transform="translate(1.796 1.556)"><path fill="#fff" d="M5.978.071A7.472 7.472 0 0 0 3.5.549 4.989 4.989 0 0 0 1.7 1.73 5.006 5.006 0 0 0 .524 3.539a7.509 7.509 0 0 0-.47 2.478C.007 7.105 0 7.453 0 10.224s.017 3.118.069 4.207a7.493 7.493 0 0 0 .479 2.475 5 5 0 0 0 1.18 1.806 5.013 5.013 0 0 0 1.81 1.173 7.485 7.485 0 0 0 2.478.469c1.088.048 1.436.059 4.206.053s3.119-.017 4.208-.069a7.5 7.5 0 0 0 2.476-.479 5.212 5.212 0 0 0 2.978-2.99 7.464 7.464 0 0 0 .47-2.477c.048-1.089.059-1.437.053-4.207s-.017-3.118-.069-4.207a7.464 7.464 0 0 0-.479-2.478 5 5 0 0 0-1.18-1.8 4.992 4.992 0 0 0-1.81-1.176 7.466 7.466 0 0 0-2.478-.47C13.3.006 12.956 0 10.185 0S7.067.018 5.978.071M6.1 18.518a5.67 5.67 0 0 1-1.9-.347 3.188 3.188 0 0 1-1.175-.761 3.173 3.173 0 0 1-.765-1.172 5.647 5.647 0 0 1-.355-1.894c-.051-1.076-.062-1.4-.067-4.123s0-3.047.051-4.123a5.642 5.642 0 0 1 .35-1.898A3.161 3.161 0 0 1 3 3.027a3.165 3.165 0 0 1 1.172-.765 5.647 5.647 0 0 1 1.894-.355c1.076-.051 1.4-.062 4.122-.067s3.048 0 4.124.051a5.642 5.642 0 0 1 1.894.348A3.15 3.15 0 0 1 17.381 3a3.163 3.163 0 0 1 .766 1.173 5.633 5.633 0 0 1 .353 1.892c.051 1.076.062 1.4.067 4.123s0 3.047-.052 4.123a5.635 5.635 0 0 1-.347 1.9 3.379 3.379 0 0 1-1.933 1.94 5.633 5.633 0 0 1-1.893.355c-1.076.051-1.4.062-4.123.067s-3.046 0-4.123-.051m8.32-13.772a1.225 1.225 0 1 0 1.222-1.227 1.225 1.225 0 0 0-1.222 1.227m-9.451 5.464a5.24 5.24 0 1 0 5.229-5.25 5.239 5.239 0 0 0-5.229 5.25m1.838 0a3.4 3.4 0 1 1 3.408 3.395A3.4 3.4 0 0 1 6.8 10.211"/></g><path fill="none" d="M0 0h24v24H0z"/></svg>