<svg xmlns="http://www.w3.org/2000/svg" width="30" height="30"><defs><clipPath id="a"><path d="M0 0h25.479v25.479H0z"/></clipPath></defs><g clip-path="url(#a)" transform="translate(2.242 1.979)"><path d="M7.464.088a9.329 9.329 0 0 0-3.091.6A6.229 6.229 0 0 0 2.12 2.159 6.249 6.249 0 0 0 .654 4.418a9.375 9.375 0 0 0-.587 3.094C.009 8.871-.005 9.3 0 12.764s.022 3.893.086 5.253a9.354 9.354 0 0 0 .6 3.09 6.247 6.247 0 0 0 1.473 2.253 6.258 6.258 0 0 0 2.26 1.465 9.345 9.345 0 0 0 3.093.585c1.359.061 1.793.074 5.251.067s3.894-.022 5.253-.086a9.363 9.363 0 0 0 3.091-.6 6.507 6.507 0 0 0 3.718-3.733 9.319 9.319 0 0 0 .586-3.092c.06-1.359.074-1.793.067-5.253s-.022-3.893-.086-5.252a9.319 9.319 0 0 0-.6-3.091 6.248 6.248 0 0 0-1.472-2.251A6.233 6.233 0 0 0 21.061.655a9.32 9.32 0 0 0-3.094-.587C16.609.008 16.175-.005 12.716 0S8.822.022 7.464.088m.148 23.03a7.079 7.079 0 0 1-2.366-.433 3.98 3.98 0 0 1-1.467-.95 3.962 3.962 0 0 1-.956-1.463 7.05 7.05 0 0 1-.443-2.365c-.063-1.343-.078-1.745-.084-5.147s.006-3.8.064-5.148a7.043 7.043 0 0 1 .434-2.365 3.946 3.946 0 0 1 .95-1.467 3.951 3.951 0 0 1 1.463-.956 7.051 7.051 0 0 1 2.365-.443c1.344-.064 1.747-.081 5.147-.081s3.8.005 5.149.064a7.044 7.044 0 0 1 2.365.434 3.932 3.932 0 0 1 1.467.949 3.949 3.949 0 0 1 .956 1.464 7.032 7.032 0 0 1 .444 2.361c.064 1.344.078 1.747.084 5.148s-.005 3.8-.065 5.147a7.035 7.035 0 0 1-.433 2.367 4.218 4.218 0 0 1-2.414 2.422 7.032 7.032 0 0 1-2.363.443c-1.344.063-1.746.078-5.148.084s-3.8-.006-5.148-.064M18 5.93a1.529 1.529 0 1 0 1.523-1.53A1.529 1.529 0 0 0 18 5.93M6.2 12.752A6.542 6.542 0 1 0 12.727 6.2 6.541 6.541 0 0 0 6.2 12.752m2.294 0a4.246 4.246 0 1 1 4.255 4.238 4.246 4.246 0 0 1-4.255-4.238"/></g><path fill="none" d="M0 0h30v30H0z"/></svg>