<svg xmlns="http://www.w3.org/2000/svg" width="25" height="25"><path d="M23.341 12.596a10.744 10.744 0 1 0-13.34 10.428v-7.145H7.785v-3.283h2.216v-1.414c0-3.657 1.655-5.352 5.245-5.352a11.847 11.847 0 0 1 2.336.267v2.976c-.254-.027-.694-.04-1.241-.04-1.762 0-2.443.667-2.443 2.4v1.161h3.51l-.6 3.283h-2.907v7.382a10.746 10.746 0 0 0 9.44-10.663Z"/><path fill="none" d="m16.805 15.881.6-3.283h-3.51v-1.161c0-1.735.681-2.4 2.443-2.4.547 0 .988.013 1.241.04V6.101a11.847 11.847 0 0 0-2.336-.267c-3.59 0-5.245 1.7-5.245 5.352v1.415H7.782v3.28h2.216v7.145a10.8 10.8 0 0 0 3.9.238v-7.383Z"/><path fill="none" d="M0 0h25v25H0z"/></svg>