<?xml version="1.0" standalone="no"?>
<!DOCTYPE svg PUBLIC "-//W3C//DTD SVG 20010904//EN"
 "http://www.w3.org/TR/2001/REC-SVG-20010904/DTD/svg10.dtd">
<svg version="1.0" xmlns="http://www.w3.org/2000/svg"
 width="360.000000pt" height="360.000000pt" viewBox="0 0 360.000000 360.000000"
 preserveAspectRatio="xMidYMid meet">
<metadata>
Created by potrace 1.14, written by Peter Selinger 2001-2017
</metadata>
<g transform="translate(0.000000,360.000000) scale(0.100000,-0.100000)"
fill="#000000" stroke="none">
<path d="M2178 3483 c7 -3 16 -2 19 1 4 3 -2 6 -13 5 -11 0 -14 -3 -6 -6z"/>
<path d="M2005 3461 c-224 -65 -460 -275 -579 -516 -98 -197 -143 -398 -153
-687 l-6 -178 -163 0 c-98 0 -165 -4 -169 -10 -4 -7 54 -10 166 -10 l172 0 -6
-512 c-4 -282 -10 -717 -14 -966 l-6 -452 -164 0 c-102 0 -163 -4 -163 -10 0
-7 180 -10 520 -10 340 0 520 3 520 10 0 6 -62 10 -166 10 l-167 0 6 262 c4
145 9 551 12 903 3 352 8 668 11 703 l6 62 249 0 c159 0 249 4 249 10 0 6 -90
10 -250 10 l-250 0 -2 198 c-2 259 0 325 18 460 54 407 212 682 421 731 l38 9
-35 0 c-19 0 -62 -7 -95 -17z"/>
<path d="M2288 3463 c91 -32 141 -117 127 -217 -7 -59 -31 -107 -80 -166 -51
-61 -57 -76 -56 -137 1 -104 51 -148 171 -148 68 0 79 3 122 32 33 24 55 49
75 90 26 53 28 68 28 168 0 101 -2 114 -27 162 -37 69 -78 114 -138 153 -57
37 -186 80 -233 79 -32 -1 -31 -1 11 -16z"/>
</g>
</svg>
