<svg xmlns="http://www.w3.org/2000/svg" width="27" height="27"><path fill="none" d="M0 0h27v27H0z"/><path d="M25.89 0h-.5L13.237 12.157l-7.679 7.679-4.479 4.475h.5l6.822-6.821a1.815 1.815 0 0 0-.086.558 2.112 2.112 0 0 0 1.828 2.083l1.02.269c.836.226 1.178.567 1.178 1.134 0 .623-.595.935-1.36.935a1.5 1.5 0 0 1-1.644-1.162H8.092c.1 1.431 1.36 2.2 2.877 2.2 1.474 0 2.605-.652 2.605-2.055a2.1 2.1 0 0 0-1.814-2.1l-1.134-.3c-.751-.2-1.077-.5-1.077-1.02s.538-.878 1.219-.878a1.359 1.359 0 0 1 1.36 1.006h1.219a2.366 2.366 0 0 0-2.579-2.026 3.31 3.31 0 0 0-1.228.217l4.2-4.2Z"/><path d="M16.826 15.215h-1.22v1.828h-1.5v1.116h1.5v3.1a1.994 1.994 0 0 0 1.8 2.171 1.949 1.949 0 0 0 .371 0 3.394 3.394 0 0 0 1.091-.17v-1.09a2.679 2.679 0 0 1-.865.141c-.765 0-1.178-.3-1.178-1.2V18.16h2.041v-1.117h-2.04ZM24.399 19.793c0 1.629-.865 2.593-1.97 2.593-.978 0-1.6-.751-1.6-1.941v-3.4h-1.22v3.585a2.586 2.586 0 0 0 2.605 2.877 2.437 2.437 0 0 0 2.182-1.232v1.09h1.219v-6.32h-1.216Z"/></svg>